<?xml version="1.0"?>
<svg xmlns="http://www.w3.org/2000/svg" xmlns:xlink="http://www.w3.org/1999/xlink" xmlns:svgjs="http://svgjs.com/svgjs" version="1.1" width="512" height="512" x="0" y="0" viewBox="0 0 512 512" style="enable-background:new 0 0 512 512" xml:space="preserve" class=""><g><linearGradient xmlns="http://www.w3.org/2000/svg" id="linear-gradient" gradientUnits="userSpaceOnUse" x1="256" x2="256" y1="470" y2="90.474"><stop stop-opacity="1" stop-color="#fff241" offset="0.21235521235521235"/><stop stop-opacity="1" stop-color="#ffab3d" offset="0.466"/><stop stop-opacity="1" stop-color="#ff945b" offset="0.752"/><stop stop-opacity="1" stop-color="#ff7400" offset="0.898"/></linearGradient><linearGradient xmlns="http://www.w3.org/2000/svg" xmlns:xlink="http://www.w3.org/1999/xlink" id="linear-gradient-2" x1="137.758" x2="137.758" xlink:href="#linear-gradient" y1="470" y2="90.474"/><linearGradient xmlns="http://www.w3.org/2000/svg" xmlns:xlink="http://www.w3.org/1999/xlink" id="linear-gradient-3" x1="101.864" x2="101.864" xlink:href="#linear-gradient" y1="470" y2="90.474"/><path xmlns="http://www.w3.org/2000/svg" d="m472.947 259.7-54.2-28.715-4.036-62.175 54.067-35.781a7.944 7.944 0 0 0 3.533-7.125l-4.426-68.19a7.949 7.949 0 0 0 -4.414-6.6l-61.733-30.304a7.933 7.933 0 0 0 -7.85.5l-54.111 35.815a7.839 7.839 0 0 0 -.751-.434l-61.732-30.307a7.934 7.934 0 0 0 -7.853.5l-.094.064-53.939 37.23-59.4-29.163a7.935 7.935 0 0 0 -7.851.5l-57.3 37.921a7.914 7.914 0 0 0 -3.538 7.042l3.381 66.266-55.65 36.826a7.948 7.948 0 0 0 -3.533 7.125l4.426 68.19a7.967 7.967 0 0 0 4.46 6.623l59.256 28.461 4.237 65.275a7.943 7.943 0 0 0 4.414 6.6l61.732 30.307a7.934 7.934 0 0 0 7.745-.435l57.654-35.633 58.274 28.609 4.728 65.591a7.949 7.949 0 0 0 4.413 6.6l61.733 30.307a7.932 7.932 0 0 0 7.85-.5l57.3-37.919a7.94 7.94 0 0 0 3.535-7.128c0-.048-.006-.1-.01-.143l-5.773-64.782 50.15-30.818a6 6 0 0 0 2.85-5.439l-4.345-79.774a6 6 0 0 0 -3.199-4.987zm-74.392-227.085 57.507 28.234 4.121 63.481-52.058 34.452-60.425-29.931-3.893-60zm-55.923 107.118 60.1 29.767 4.122 63.484-53.566 35.235-57.567-28.263-5.875-65.289zm-68.474-101.521 57.46 28.21 4.12 63.482-53.372 35.321-55.939-27.463-4.138-63.753zm-121.335 8.608 57.508 28.233 4.12 63.475-54.551 35.925-57.206-28.085-3.272-64.2zm-48.36 236.144-56.7-27.233-4.119-63.459 53.373-35.322 57.507 28.234 4.024 61.986zm68.837 101.419-57.581-28.27-4.119-63.481 53.366-35.319 60.077 29.67 4.083 62.9zm56.891-108.24-59.649-29.459-4.042-62.213 54.6-35.954 56.851 27.91 5.784 64.278zm68.442 101.6-57.508-28.233-4.125-63.486 53.377-35.324 57.508 28.233 4.12 63.482zm69.139 101.647-57.524-28.241-4.59-63.665 53.153-35.184 56.689 29.075 5.59 62.725zm53.146-108.717-56.95-29.207-4.1-63.207 54.632-35.941 49.851 26.421 3.964 72.807z" fill="url(#linear-gradient)" data-original="url(#linear-gradient)" style="" class=""/><path xmlns="http://www.w3.org/2000/svg" d="m159.918 407.839-38.384-21.846a6 6 0 1 0 -5.935 10.428l38.383 21.847a6 6 0 1 0 5.936-10.429z" fill="url(#linear-gradient-2)" data-original="url(#linear-gradient-2)" style=""/><path xmlns="http://www.w3.org/2000/svg" d="m106.147 377.235-2.628-1.5a6 6 0 0 0 -5.938 10.429l2.629 1.5a6 6 0 0 0 5.937-10.429z" fill="url(#linear-gradient-3)" data-original="url(#linear-gradient-3)" style=""/></g></svg>
